<svg width="308" height="277" viewBox="0 0 308 277" fill="none" xmlns="http://www.w3.org/2000/svg">
<g clip-path="url(#clip0)">
<path d="M270.178 121.125C271.123 120.335 271.819 119.813 272.447 119.218C287.048 105.402 294.046 88.3881 293.647 68.3204C293.424 57.0845 290.727 46.5289 284.359 37.131C280.439 31.3458 275.45 26.8047 268.398 25.2954C266.528 24.8954 265.765 24.017 265.615 22.3687C265.11 16.8508 264.712 11.3228 264.176 5.80823C263.914 3.11855 264.83 1.10539 266.638 -0.916401C278.065 -13.6962 290.079 -25.7961 304.535 -35.2146C306.482 -36.4828 307.619 -40.3576 306.659 -41.8863C305.737 -43.3553 302.574 -43.3595 300.239 -41.8807C299.868 -41.6298 299.512 -41.3585 299.171 -41.0679C297.288 -39.5557 295.39 -38.0618 293.529 -36.5217C270.895 -17.7843 251.859 4.27405 234.946 28.1614C230.343 34.6515 224.267 39.9554 217.22 43.6376C216.251 44.0964 215.31 44.6139 214.404 45.1871C212.787 46.3359 211.442 46.0004 209.797 45.0369C200.22 39.3269 189.234 36.4256 178.09 36.6633C166.714 36.8736 155.759 39.43 145.844 44.6888C127.762 54.2793 110.116 64.694 92.1261 74.8561C92.486 75.0906 92.8608 75.3013 93.2481 75.487C105.231 80.027 117.485 83.5691 130.243 85.0493C145.021 86.7638 159.505 85.6948 173.425 79.9487C188.509 73.7219 200.131 63.2412 209.802 50.3455C210.385 49.5683 210.943 48.5454 211.751 48.2039C215.577 46.5874 219.486 45.1681 223.713 43.5448C223.24 44.3166 222.988 44.762 222.703 45.1851C211.821 61.369 200.414 77.23 190.225 93.8401C182.802 105.941 172.74 114.087 160.053 119.57C159.719 119.7 159.399 119.86 159.094 120.047C155.943 122.15 152.796 122.652 149.571 120.168C149.034 119.846 148.452 119.605 147.845 119.454C128.391 112.387 108.396 110.17 87.9519 113.376C73.2748 115.677 60.2072 121.495 50.1657 132.93C45.2777 138.48 41.5843 144.979 39.3163 152.022C40.2095 152.02 40.8282 152.028 41.4466 152.016C53.2474 151.777 65.0492 151.577 76.8487 151.283C89.184 150.975 101.516 150.562 113.665 148.081C126.593 145.442 138.859 140.988 147.867 131.013C152.865 125.478 158.345 121.728 165.312 119.631C168.149 118.776 170.811 117.34 174.261 115.867C165.541 127.579 156.79 138.196 147.161 148.073C133.324 162.266 117.975 174.447 100.13 183.257C98.8942 183.903 97.4838 184.135 96.1063 183.919C86.2761 181.524 76.1566 180.537 66.0498 180.987C48.8798 181.792 33.2502 186.903 19.8693 198.015C12.0117 204.54 5.80893 212.422 0.548888 222.193C8.81365 223.488 16.5755 225.26 24.4247 225.834C53.3703 227.947 77.3347 218.121 94.7037 194.413C98.5247 189.197 102.724 185.478 108.478 182.609C124.911 174.416 138.555 162.418 151.326 149.389C151.969 148.733 152.296 147.766 152.77 146.944C151.87 154.171 150.586 160.724 149.177 167.25C148.891 168.079 148.338 168.791 147.605 169.272C128.729 183.053 120.074 202.052 120.11 225.007C120.131 238.594 121.312 252.18 122.003 265.765C122.172 269.099 122.466 272.425 122.708 275.83C131.569 273.318 139.333 268.659 144.912 262.618C154.571 252.158 158.235 239.332 159.14 225.55C160.382 206.618 156.927 188.311 151.322 170.319C150.877 168.989 150.823 167.558 151.168 166.198C153.703 158.197 156.392 150.244 159.111 142.302C159.523 141.122 160.158 140.033 160.982 139.094C177.75 120.174 192.548 99.7375 207.138 79.1384C207.781 78.2304 208.442 77.3349 209.403 76.0071C209.655 76.957 209.795 77.3573 209.866 77.7695C211.063 84.7325 212.181 91.7104 213.485 98.6533C213.888 100.798 213.251 102.052 211.577 103.39C200.959 111.871 195.547 123.024 194.918 136.578C194.456 146.523 196.184 156.191 198.493 165.788C201.546 178.473 204.649 191.145 207.686 203.834C208.061 205.399 208.161 207.031 208.472 209.217C211.653 206.431 214.442 204.196 216.993 201.717C233.391 185.785 240.173 166.662 235.871 143.939C233.036 128.961 226.335 115.74 217.488 103.493C216.725 102.543 216.204 101.423 215.967 100.227C214.877 91.1815 213.896 82.1222 212.964 73.0584C212.825 72.0513 213.027 71.0267 213.539 70.1485C228.579 49.563 243.661 29.0081 258.785 8.48382C259.263 7.83494 259.831 7.25374 260.239 6.77966C261.735 13.0445 263.177 19.0799 264.673 25.3453C264.11 25.7062 263.207 26.2705 262.318 26.8569C251.545 33.9648 246.63 43.8546 248.947 56.6951C250.045 62.4852 251.633 68.1713 253.693 73.6921C259.383 89.324 268.077 103.883 270.178 121.125Z" fill="white"/>
<path d="M270.178 121.126C268.077 103.883 259.383 89.324 253.693 73.6921C251.633 68.1714 250.045 62.4852 248.947 56.6951C246.63 43.8546 251.545 33.9648 262.318 26.8569C263.207 26.2705 264.11 25.7062 264.673 25.3453C263.177 19.08 261.735 13.0445 260.239 6.77969C259.832 7.25377 259.263 7.83497 258.786 8.48385C243.683 29.024 228.601 49.5789 213.539 70.1485C213.027 71.0268 212.825 72.0514 212.964 73.0585C213.896 82.1222 214.877 91.1815 215.967 100.227C216.204 101.423 216.726 102.543 217.488 103.493C226.335 115.74 233.036 128.961 235.871 143.939C240.173 166.662 233.391 185.785 216.993 201.717C214.442 204.197 211.653 206.431 208.472 209.217C208.161 207.031 208.061 205.4 207.686 203.834C204.649 191.145 201.547 178.473 198.493 165.788C196.184 156.191 194.456 146.523 194.918 136.578C195.547 123.024 200.959 111.871 211.577 103.39C213.251 102.052 213.888 100.798 213.485 98.6533C212.181 91.7105 211.063 84.7326 209.866 77.7695C209.795 77.3573 209.655 76.957 209.403 76.0071C208.442 77.335 207.781 78.2304 207.138 79.1384C192.548 99.7375 177.75 120.174 160.983 139.094C160.158 140.033 159.523 141.122 159.111 142.302C156.392 150.244 153.703 158.197 151.168 166.198C150.824 167.558 150.877 168.989 151.322 170.319C156.927 188.31 160.382 206.618 159.14 225.55C158.235 239.332 154.571 252.158 144.912 262.618C139.333 268.659 131.569 273.318 122.708 275.83C122.466 272.425 122.172 269.098 122.003 265.765C121.312 252.18 120.131 238.594 120.11 225.007C120.074 202.052 128.729 183.053 147.606 169.272C148.338 168.791 148.891 168.079 149.177 167.25C150.586 160.724 151.87 154.171 152.77 146.944C152.296 147.766 151.969 148.733 151.326 149.389C138.555 162.418 124.911 174.416 108.478 182.609C102.724 185.478 98.5248 189.197 94.7038 194.413C77.3347 218.121 53.3704 227.947 24.4247 225.834C16.5755 225.26 8.81371 223.488 0.54895 222.193C5.80903 212.422 12.0117 204.54 19.8694 198.015C33.2503 186.903 48.8799 181.792 66.0499 180.987C76.1567 180.537 86.2762 181.524 96.1064 183.919C97.4839 184.135 98.8943 183.903 100.13 183.257C117.975 174.447 133.325 162.266 147.161 148.073C156.79 138.196 165.541 127.579 174.261 115.867C170.811 117.34 168.149 118.776 165.313 119.631C158.345 121.728 152.865 125.478 147.867 131.013C138.859 140.988 126.593 145.442 113.665 148.081C101.516 150.562 89.1841 150.975 76.8488 151.283C65.0493 151.577 53.2475 151.777 41.4467 152.016C40.8283 152.028 40.2096 152.02 39.3163 152.022C41.5844 144.979 45.2777 138.48 50.1658 132.93C60.2073 121.495 73.2749 115.677 87.952 113.376C108.396 110.17 128.391 112.387 147.845 119.454C148.452 119.605 149.034 119.846 149.571 120.168C152.796 122.652 155.944 122.15 159.094 120.047C159.399 119.86 159.72 119.7 160.053 119.57C172.74 114.087 182.802 105.941 190.225 93.8401C200.414 77.2301 211.821 61.369 222.703 45.1851C222.988 44.7619 223.24 44.3166 223.713 43.5448C219.486 45.1681 215.577 46.5874 211.751 48.2039C210.943 48.5454 210.385 49.5683 209.802 50.3455C200.131 63.2412 188.509 73.7219 173.425 79.9486C159.505 85.6947 145.021 86.7637 130.243 85.0493C117.485 83.5691 105.231 80.027 93.2482 75.487C92.8609 75.3013 92.4861 75.0906 92.1262 74.8561C110.116 64.694 127.762 54.2793 145.844 44.6888C155.759 39.43 166.714 36.8736 178.09 36.6633C189.234 36.4256 200.22 39.3269 209.797 45.0369C211.442 46.0004 212.787 46.3359 214.404 45.1871C215.31 44.6139 216.251 44.0964 217.22 43.6376C224.267 39.9554 230.343 34.6515 234.946 28.1615C251.86 4.27409 270.895 -17.7843 293.529 -36.5218C295.39 -38.0618 297.288 -39.5558 299.172 -41.068C299.512 -41.3586 299.868 -41.6299 300.239 -41.8807C302.574 -43.3595 305.737 -43.3553 306.659 -41.8863C307.619 -40.3576 306.482 -36.4829 304.535 -35.2147C290.079 -25.7962 278.065 -13.6961 266.638 -0.91634C264.83 1.10545 263.914 3.11855 264.176 5.80823C264.712 11.3228 265.11 16.8508 265.615 22.3687C265.765 24.017 266.528 24.8954 268.398 25.2954C275.45 26.8047 280.439 31.3458 284.359 37.1311C290.727 46.5289 293.424 57.0845 293.647 68.3205C294.046 88.3881 287.048 105.402 272.447 119.218C271.819 119.813 271.123 120.335 270.178 121.126Z" fill="#354F52"/>
</g>
<defs>
<clipPath id="clip0">
<rect width="307.001" height="318.451" fill="white" transform="translate(307.661 275.45) rotate(179.881)"/>
</clipPath>
</defs>
</svg>
